# xmcd
#
# Track frame offsets:
#	150
#	9787
#	21027
#	31437
#	41565
#	52917
#	63883
#	74022
#	83933
#	93953
#	103889
#	115955
#	127366
#	136546
#	145685
#	156690
#	171543
#	181211
#	194094
#	205954
#
# Disc length: 2881 seconds
#
# Revision: 1
# Processed by: cddbd v1.5.1PL0 Copyright (c) Steve Scherf et al.
# Submitted via: audiograbber 1.83.01
#
DISCID=240b3f14
DTITLE=Les Bel-Air - Les grands succès country
DYEAR=2001
DGENRE=Québécois
TTITLE0=Marchant dans la plaine
TTITLE1=Cupidon
TTITLE2=Le coin des amours
TTITLE3=Suzie darling
TTITLE4=Maman
TTITLE5=Mary Lou
TTITLE6=Bon vivant
TTITLE7=Restons ainsi
TTITLE8=Prends le temps de sourire
TTITLE9=La fille du nord
TTITLE10=Tout ça
TTITLE11=N'essayez pas les filles avec vos chansons
TTITLE12=Ma guitare pour un cheval blanc
TTITLE13=Je n'entrerai pas ce soir
TTITLE14=Blanc sur noir
TTITLE15=Betty
TTITLE16=Ma vie de garçon
TTITLE17=Rends-moi les mots
TTITLE18=Visage de Noêl
TTITLE19=Prends ta guitare et chante avec moi
EXTD=
EXTT0=
EXTT1=
EXTT2=
EXTT3=
EXTT4=
EXTT5=
EXTT6=
EXTT7=
EXTT8=
EXTT9=
EXTT10=
EXTT11=
EXTT12=
EXTT13=
EXTT14=
EXTT15=
EXTT16=
EXTT17=
EXTT18=
EXTT19=
PLAYORDER=
